<svg class="animated" id="freepik_stories-visual-data" xmlns="http://www.w3.org/2000/svg" viewBox="0 0 500 500" version="1.1" xmlns:xlink="http://www.w3.org/1999/xlink" xmlns:svgjs="http://svgjs.com/svgjs"><style>svg#freepik_stories-visual-data:not(.animated) .animable {opacity: 0;}svg#freepik_stories-visual-data.animated #freepik--Script--inject-109 {animation: 1.5s Infinite  linear floating;animation-delay: 0s;}svg#freepik_stories-visual-data.animated #freepik--data-2--inject-109 {animation: 1.5s Infinite  linear floating;animation-delay: 0s;}svg#freepik_stories-visual-data.animated #freepik--data-1--inject-109 {animation: 1.5s Infinite  linear floating;animation-delay: 0s;}            @keyframes floating {                0% {                    opacity: 1;                    transform: translateY(0px);                }                50% {                    transform: translateY(-10px);                }                100% {                    opacity: 1;                    transform: translateY(0px);                }            }        </style><g id="freepik--background-complete--inject-109" class="animable" style="transform-origin: 250px 228.23px;"><rect y="382.4" width="500" height="0.25" style="fill: rgb(235, 235, 235); transform-origin: 250px 382.525px;" id="elfegdegs3s8e" class="animable"></rect><rect x="416.78" y="398.49" width="33.12" height="0.25" style="fill: rgb(235, 235, 235); transform-origin: 433.34px 398.615px;" id="el9zsuh7ir8fh" class="animable"></rect><rect x="322.53" y="401.21" width="8.69" height="0.25" style="fill: rgb(235, 235, 235); transform-origin: 326.875px 401.335px;" id="eleaykslbria5" class="animable"></rect><rect x="396.59" y="389.21" width="19.19" height="0.25" style="fill: rgb(235, 235, 235); transform-origin: 406.185px 389.335px;" id="ela2upvdz1iru" class="animable"></rect><rect x="52.46" y="390.89" width="43.19" height="0.25" style="fill: rgb(235, 235, 235); transform-origin: 74.055px 391.015px;" id="el28rs3obty5s" class="animable"></rect><rect x="104.56" y="390.89" width="6.33" height="0.25" style="fill: rgb(235, 235, 235); transform-origin: 107.725px 391.015px;" id="el5jjgreidmpr" class="animable"></rect><rect x="131.47" y="395.11" width="93.68" height="0.25" style="fill: rgb(235, 235, 235); transform-origin: 178.31px 395.235px;" id="el74i4cwwlnfc" class="animable"></rect><path d="M237,337.8H43.91a5.71,5.71,0,0,1-5.7-5.71V60.66A5.71,5.71,0,0,1,43.91,55H237a5.71,5.71,0,0,1,5.71,5.71V332.09A5.71,5.71,0,0,1,237,337.8ZM43.91,55.2a5.46,5.46,0,0,0-5.45,5.46V332.09a5.46,5.46,0,0,0,5.45,5.46H237a5.47,5.47,0,0,0,5.46-5.46V60.66A5.47,5.47,0,0,0,237,55.2Z" style="fill: rgb(235, 235, 235); transform-origin: 140.46px 196.4px;" id="elvvxq5xo1kb" class="animable"></path><path d="M453.31,337.8H260.21a5.72,5.72,0,0,1-5.71-5.71V60.66A5.72,5.72,0,0,1,260.21,55h193.1A5.71,5.71,0,0,1,459,60.66V332.09A5.71,5.71,0,0,1,453.31,337.8ZM260.21,55.2a5.47,5.47,0,0,0-5.46,5.46V332.09a5.47,5.47,0,0,0,5.46,5.46h193.1a5.47,5.47,0,0,0,5.46-5.46V60.66a5.47,5.47,0,0,0-5.46-5.46Z" style="fill: rgb(235, 235, 235); transform-origin: 356.75px 196.4px;" id="elc59gv4jax8c" class="animable"></path><rect x="142.41" y="264.17" width="145.07" height="92.28" style="fill: rgb(235, 235, 235); transform-origin: 214.945px 310.31px;" id="elvk4szggzqwb" class="animable"></rect><rect x="142.41" y="264.17" width="145.07" height="6.25" style="fill: rgb(224, 224, 224); transform-origin: 214.945px 267.295px;" id="el9rm9k6r7zzm" class="animable"></rect><circle cx="283.44" cy="267.3" r="1.88" style="fill: rgb(250, 250, 250); transform-origin: 283.44px 267.3px;" id="elhzhk0sr75t8" class="animable"></circle><circle cx="277.18" cy="267.3" r="1.88" style="fill: rgb(250, 250, 250); transform-origin: 277.18px 267.3px;" id="elz4d9ikkaqxe" class="animable"></circle><circle cx="270.92" cy="267.3" r="1.88" style="fill: rgb(250, 250, 250); transform-origin: 270.92px 267.3px;" id="elw32ohcbedz" class="animable"></circle><rect x="223.44" y="289.96" width="145.07" height="92.28" style="fill: rgb(245, 245, 245); transform-origin: 295.975px 336.1px;" id="elk99qb0in7on" class="animable"></rect><rect x="223.44" y="289.96" width="145.07" height="6.25" style="fill: rgb(224, 224, 224); transform-origin: 295.975px 293.085px;" id="elokcpgd5icwd" class="animable"></rect><path d="M366.35,293.08a1.88,1.88,0,1,1-1.88-1.88A1.88,1.88,0,0,1,366.35,293.08Z" style="fill: rgb(250, 250, 250); transform-origin: 364.47px 293.08px;" id="elrjbcmqq3v" class="animable"></path><path d="M360.09,293.08a1.88,1.88,0,1,1-1.88-1.88A1.88,1.88,0,0,1,360.09,293.08Z" style="fill: rgb(250, 250, 250); transform-origin: 358.21px 293.08px;" id="elm9rdy2jsw3" class="animable"></path><path d="M353.83,293.08A1.88,1.88,0,1,1,352,291.2,1.88,1.88,0,0,1,353.83,293.08Z" style="fill: rgb(250, 250, 250); transform-origin: 351.95px 293.079px;" id="elifc9zxslqx" class="animable"></path><path d="M265.22,86.89h-.36a14.81,14.81,0,0,0,.25-2.61,14.4,14.4,0,0,0-14.4-14.39h-.11a11,11,0,0,0-19.25.41,12,12,0,0,0-3.07-.41,12.1,12.1,0,0,0-12.09,11.65,11,11,0,0,0,6.54,19.78,10.83,10.83,0,0,0,2.63-.33h37.7a7.33,7.33,0,0,0,2.16.33,7.22,7.22,0,1,0,0-14.44Z" style="fill: rgb(235, 235, 235); transform-origin: 242.128px 82.8676px;" id="elisjqg66cybf" class="animable"></path><path d="M380.69,115.27h-.28a10.83,10.83,0,0,0,.19-2,11,11,0,0,0-11-11h-.08a8.41,8.41,0,0,0-14.74.31,9.21,9.21,0,0,0-11.61,8.61,8.39,8.39,0,0,0,5,15.14,8.5,8.5,0,0,0,2.32-.33h28.34a5.53,5.53,0,1,0,1.87-10.73Z" style="fill: rgb(235, 235, 235); transform-origin: 363.002px 112.196px;" id="elofk1lufgv48" class="animable"></path><path d="M152.69,123.27h-.28a10.83,10.83,0,0,0,.19-2,11,11,0,0,0-11-11h-.08a8.41,8.41,0,0,0-14.74.31,9.21,9.21,0,0,0-11.61,8.61,8.39,8.39,0,0,0,5,15.14,8.5,8.5,0,0,0,2.32-.33h28.34a5.53,5.53,0,1,0,1.87-10.73Z" style="fill: rgb(235, 235, 235); transform-origin: 135.002px 120.196px;" id="eln1wh00umzd8" class="animable"></path><path d="M78.78,346.78,77.52,345a2.42,2.42,0,0,0-2-1H66.7a2.13,2.13,0,0,0-1.84,1l-1,1.75a2.14,2.14,0,0,1-1.84,1H56.68a2.14,2.14,0,0,0-2.15,2.3l1.71,29.59a2.47,2.47,0,0,0,2.42,2.3h41.91a2.14,2.14,0,0,0,2.15-2.3L101,350.11a2.45,2.45,0,0,0-2.41-2.3H80.74A2.45,2.45,0,0,1,78.78,346.78Z" style="fill: rgb(224, 224, 224); transform-origin: 78.625px 362.97px;" id="el7ubvxnu6cz7" class="animable"></path><path d="M102.78,350.63H64.38a3.21,3.21,0,0,0-3.15,2.87l-2.31,25.63A2.6,2.6,0,0,0,61.56,382H100a3.23,3.23,0,0,0,3.16-2.87l2.31-25.63A2.59,2.59,0,0,0,102.78,350.63Z" style="fill: rgb(240, 240, 240); transform-origin: 82.1957px 366.314px;" id="el34p4foh4irg" class="animable"></path><path d="M417.71,347.2l-1.25-1.75a2.44,2.44,0,0,0-2-1h-8.86a2.11,2.11,0,0,0-1.84,1l-1.06,1.75a2.13,2.13,0,0,1-1.84,1h-5.29a2.14,2.14,0,0,0-2.15,2.3l1.72,29.59a2.45,2.45,0,0,0,2.41,2.3H439.5a2.14,2.14,0,0,0,2.15-2.3l-1.71-29.59a2.47,2.47,0,0,0-2.42-2.3H419.67A2.45,2.45,0,0,1,417.71,347.2Z" style="fill: rgb(224, 224, 224); transform-origin: 417.535px 363.42px;" id="el5102dkza4ar" class="animable"></path><path d="M441.71,351.05H403.32a3.22,3.22,0,0,0-3.16,2.87l-2.31,25.63a2.6,2.6,0,0,0,2.64,2.87h38.39a3.23,3.23,0,0,0,3.16-2.87l2.31-25.63A2.59,2.59,0,0,0,441.71,351.05Z" style="fill: rgb(240, 240, 240); transform-origin: 421.101px 366.735px;" id="el514we0dtb9a" class="animable"></path><path d="M297,323.29l-1.26-1.75a2.42,2.42,0,0,0-2-1h-8.86a2.13,2.13,0,0,0-1.84,1L282,323.29a2.14,2.14,0,0,1-1.84,1h-5.29a2.14,2.14,0,0,0-2.15,2.3l1.71,29.59a2.47,2.47,0,0,0,2.42,2.3h41.9a2.13,2.13,0,0,0,2.15-2.3l-1.71-29.59a2.45,2.45,0,0,0-2.41-2.3H298.93A2.45,2.45,0,0,1,297,323.29Z" style="fill: rgb(224, 224, 224); transform-origin: 296.81px 339.51px;" id="elke8oz3jx2o" class="animable"></path><path d="M321,327.14h-38.4a3.22,3.22,0,0,0-3.15,2.87l-2.31,25.63a2.59,2.59,0,0,0,2.64,2.87h38.39a3.23,3.23,0,0,0,3.16-2.87L323.6,330A2.58,2.58,0,0,0,321,327.14Z" style="fill: rgb(240, 240, 240); transform-origin: 300.37px 342.825px;" id="eli67cb4ka9mo" class="animable"></path></g><g id="freepik--Shadow--inject-109" class="animable" style="transform-origin: 250px 416.24px;"><ellipse id="freepik--path--inject-109" cx="250" cy="416.24" rx="193.89" ry="11.32" style="fill: rgb(245, 245, 245); transform-origin: 250px 416.24px;" class="animable"></ellipse></g><g id="freepik--Script--inject-109" class="animable" style="transform-origin: 111.79px 216.46px;"><rect x="59.58" y="127.01" width="104.42" height="178.9" rx="2.37" style="fill: rgb(64, 123, 255); transform-origin: 111.79px 216.46px;" id="el06ynl9yy4up9" class="animable"></rect><g id="elb9kq7ctjqae"><rect x="59.58" y="127.01" width="104.42" height="178.9" rx="2.37" style="fill: rgb(255, 255, 255); opacity: 0.7; isolation: isolate; transform-origin: 111.79px 216.46px;" class="animable"></rect></g><rect x="66.67" y="149.68" width="19.67" height="2.67" style="fill: rgb(64, 123, 255); transform-origin: 76.505px 151.015px;" id="el9k05gdyoklj" class="animable"></rect><rect x="66.67" y="155.68" width="19.67" height="2.67" style="fill: rgb(64, 123, 255); transform-origin: 76.505px 157.015px;" id="elhzozal1iwno" class="animable"></rect><rect x="136.71" y="149.68" width="19.67" height="2.67" style="fill: rgb(64, 123, 255); transform-origin: 146.545px 151.015px;" id="el2tsdm98hxkg" class="animable"></rect><rect x="100.04" y="137.33" width="19.67" height="2.67" style="fill: rgb(64, 123, 255); transform-origin: 109.875px 138.665px;" id="el8inkwxg7u4" class="animable"></rect><rect x="66.67" y="132.67" width="89.71" height="2.67" style="fill: rgb(64, 123, 255); transform-origin: 111.525px 134.005px;" id="elhklnk2n72lv" class="animable"></rect><rect x="76.67" y="164" width="79.7" height="2.67" style="fill: rgb(64, 123, 255); transform-origin: 116.52px 165.335px;" id="elhim215l59k" class="animable"></rect><rect x="66.67" y="169.33" width="89.71" height="2.67" style="fill: rgb(64, 123, 255); transform-origin: 111.525px 170.665px;" id="elvqy520zz85" class="animable"></rect><rect x="66.67" y="174.67" width="89.71" height="2.67" style="fill: rgb(64, 123, 255); transform-origin: 111.525px 176.005px;" id="elccpkej9gqkj" class="animable"></rect><rect x="66.67" y="180" width="89.71" height="2.67" style="fill: rgb(64, 123, 255); transform-origin: 111.525px 181.335px;" id="elmg5wy6cbe5" class="animable"></rect><rect x="66.67" y="185.33" width="79.7" height="2.67" style="fill: rgb(64, 123, 255); transform-origin: 106.52px 186.665px;" id="elpsx1q3o046" class="animable"></rect><rect x="76.67" y="195.02" width="79.7" height="2.67" style="fill: rgb(64, 123, 255); transform-origin: 116.52px 196.355px;" id="eld956y4khb6" class="animable"></rect><rect x="66.67" y="200.35" width="89.71" height="2.67" style="fill: rgb(64, 123, 255); transform-origin: 111.525px 201.685px;" id="elm7a5tp2hy5" class="animable"></rect><rect x="66.67" y="205.69" width="89.71" height="2.67" style="fill: rgb(64, 123, 255); transform-origin: 111.525px 207.025px;" id="el7qucdtc7cle" class="animable"></rect><rect x="66.67" y="211.02" width="89.71" height="2.67" style="fill: rgb(64, 123, 255); transform-origin: 111.525px 212.355px;" id="ellukd6mso9ub" class="animable"></rect><rect x="66.67" y="216.35" width="79.7" height="2.67" style="fill: rgb(64, 123, 255); transform-origin: 106.52px 217.685px;" id="elz47gleu1qhk" class="animable"></rect><rect x="76.67" y="226.04" width="79.7" height="2.67" style="fill: rgb(64, 123, 255); transform-origin: 116.52px 227.375px;" id="elds9l7gowj1r" class="animable"></rect><rect x="66.67" y="231.37" width="89.71" height="2.67" style="fill: rgb(64, 123, 255); transform-origin: 111.525px 232.705px;" id="elpy67j806e1k" class="animable"></rect><rect x="66.67" y="236.71" width="89.71" height="2.67" style="fill: rgb(64, 123, 255); transform-origin: 111.525px 238.045px;" id="eles2ohla9ce9" class="animable"></rect><rect x="66.67" y="242.04" width="89.71" height="2.67" style="fill: rgb(64, 123, 255); transform-origin: 111.525px 243.375px;" id="el59t88t8gruf" class="animable"></rect><rect x="66.67" y="247.37" width="79.7" height="2.67" style="fill: rgb(64, 123, 255); transform-origin: 106.52px 248.705px;" id="elk1osgqow6qq" class="animable"></rect><rect x="76.67" y="258.06" width="79.7" height="2.67" style="fill: rgb(64, 123, 255); transform-origin: 116.52px 259.395px;" id="elfnm2ehwhx1" class="animable"></rect><rect x="66.67" y="263.39" width="89.71" height="2.67" style="fill: rgb(64, 123, 255); transform-origin: 111.525px 264.725px;" id="elrf4aq7cvxe" class="animable"></rect><rect x="66.67" y="268.73" width="89.71" height="2.67" style="fill: rgb(64, 123, 255); transform-origin: 111.525px 270.065px;" id="elx71thnsxnie" class="animable"></rect><rect x="66.67" y="274.06" width="89.71" height="2.67" style="fill: rgb(64, 123, 255); transform-origin: 111.525px 275.395px;" id="elpl85pcp7d1" class="animable"></rect><rect x="66.67" y="279.39" width="79.7" height="2.67" style="fill: rgb(64, 123, 255); transform-origin: 106.52px 280.725px;" id="elw85ad7w20uq" class="animable"></rect><rect x="136.71" y="294.77" width="19.67" height="2.67" style="fill: rgb(64, 123, 255); transform-origin: 146.545px 296.105px;" id="elwlcmnvkotv8" class="animable"></rect><g id="el40kxd1kide2"><g style="opacity: 0.2; isolation: isolate; transform-origin: 111.525px 215.055px;" class="animable"><rect x="66.67" y="149.68" width="19.67" height="2.67" style="fill: rgb(255, 255, 255); transform-origin: 76.505px 151.015px;" id="elce4ng3qk3uf" class="animable"></rect><rect x="66.67" y="155.68" width="19.67" height="2.67" style="fill: rgb(255, 255, 255); transform-origin: 76.505px 157.015px;" id="el62i2oemy04j" class="animable"></rect><rect x="136.71" y="149.68" width="19.67" height="2.67" style="fill: rgb(255, 255, 255); transform-origin: 146.545px 151.015px;" id="elbrqht8qr4f6" class="animable"></rect><rect x="100.04" y="137.33" width="19.67" height="2.67" style="fill: rgb(255, 255, 255); transform-origin: 109.875px 138.665px;" id="el76qfghmh2of" class="animable"></rect><rect x="66.67" y="132.67" width="89.71" height="2.67" style="fill: rgb(255, 255, 255); transform-origin: 111.525px 134.005px;" id="elpkrz3c1pucc" class="animable"></rect><rect x="76.67" y="164" width="79.7" height="2.67" style="fill: rgb(255, 255, 255); transform-origin: 116.52px 165.335px;" id="elk6zjgqx8k" class="animable"></rect><rect x="66.67" y="169.33" width="89.71" height="2.67" style="fill: rgb(255, 255, 255); transform-origin: 111.525px 170.665px;" id="elju1kvqh6e9m" class="animable"></rect><rect x="66.67" y="174.67" width="89.71" height="2.67" style="fill: rgb(255, 255, 255); transform-origin: 111.525px 176.005px;" id="el2bsc368eh06" class="animable"></rect><rect x="66.67" y="180" width="89.71" height="2.67" style="fill: rgb(255, 255, 255); transform-origin: 111.525px 181.335px;" id="el1k2097onwsd" class="animable"></rect><rect x="66.67" y="185.33" width="79.7" height="2.67" style="fill: rgb(255, 255, 255); transform-origin: 106.52px 186.665px;" id="eld9msmhdlriq" class="animable"></rect><rect x="76.67" y="195.02" width="79.7" height="2.67" style="fill: rgb(255, 255, 255); transform-origin: 116.52px 196.355px;" id="eln0q9kjfev3" class="animable"></rect><rect x="66.67" y="200.35" width="89.71" height="2.67" style="fill: rgb(255, 255, 255); transform-origin: 111.525px 201.685px;" id="elt46olou16i" class="animable"></rect><rect x="66.67" y="205.69" width="89.71" height="2.67" style="fill: rgb(255, 255, 255); transform-origin: 111.525px 207.025px;" id="elb2rlbcgxdmo" class="animable"></rect><rect x="66.67" y="211.02" width="89.71" height="2.67" style="fill: rgb(255, 255, 255); transform-origin: 111.525px 212.355px;" id="eli2wamw10ooh" class="animable"></rect><rect x="66.67" y="216.35" width="79.7" height="2.67" style="fill: rgb(255, 255, 255); transform-origin: 106.52px 217.685px;" id="elhj66jhpootq" class="animable"></rect><rect x="76.67" y="226.04" width="79.7" height="2.67" style="fill: rgb(255, 255, 255); transform-origin: 116.52px 227.375px;" id="elpia7jdx39em" class="animable"></rect><rect x="66.67" y="231.37" width="89.71" height="2.67" style="fill: rgb(255, 255, 255); transform-origin: 111.525px 232.705px;" id="elvbj860bkcu" class="animable"></rect><rect x="66.67" y="236.71" width="89.71" height="2.67" style="fill: rgb(255, 255, 255); transform-origin: 111.525px 238.045px;" id="elzv8lcu391va" class="animable"></rect><rect x="66.67" y="242.04" width="89.71" height="2.67" style="fill: rgb(255, 255, 255); transform-origin: 111.525px 243.375px;" id="elqs9otohrpah" class="animable"></rect><rect x="66.67" y="247.37" width="79.7" height="2.67" style="fill: rgb(255, 255, 255); transform-origin: 106.52px 248.705px;" id="el26xh1a3mw48" class="animable"></rect><rect x="76.67" y="258.06" width="79.7" height="2.67" style="fill: rgb(255, 255, 255); transform-origin: 116.52px 259.395px;" id="eln4g2866mb9m" class="animable"></rect><rect x="66.67" y="263.39" width="89.71" height="2.67" style="fill: rgb(255, 255, 255); transform-origin: 111.525px 264.725px;" id="el71ll0i1m4op" class="animable"></rect><rect x="66.67" y="268.73" width="89.71" height="2.67" style="fill: rgb(255, 255, 255); transform-origin: 111.525px 270.065px;" id="elwikgca7arwi" class="animable"></rect><rect x="66.67" y="274.06" width="89.71" height="2.67" style="fill: rgb(255, 255, 255); transform-origin: 111.525px 275.395px;" id="el2aza8y467sc" class="animable"></rect><rect x="66.67" y="279.39" width="79.7" height="2.67" style="fill: rgb(255, 255, 255); transform-origin: 106.52px 280.725px;" id="els3ifsl2ikd9" class="animable"></rect><rect x="136.71" y="294.77" width="19.67" height="2.67" style="fill: rgb(255, 255, 255); transform-origin: 146.545px 296.105px;" id="elte63d07pnk8" class="animable"></rect></g></g></g><g id="freepik--data-2--inject-109" class="animable" style="transform-origin: 167.05px 223.7px;"><g id="el1a9l94z58o4"><rect x="108.66" y="265.3" width="60.34" height="50.13" rx="2.37" style="opacity: 0.1; isolation: isolate; transform-origin: 138.83px 290.365px;" class="animable"></rect></g><rect x="116.1" y="274.79" width="60.34" height="50.13" rx="2.37" style="fill: rgb(64, 123, 255); transform-origin: 146.27px 299.855px;" id="elqf95r4lwnzq" class="animable"></rect><g id="el2goajnn6ku1"><rect x="116.1" y="274.79" width="60.34" height="50.13" rx="2.37" style="fill: rgb(255, 255, 255); opacity: 0.3; isolation: isolate; transform-origin: 146.27px 299.855px;" class="animable"></rect></g><rect x="122" y="304" width="12" height="6" style="fill: rgb(64, 123, 255); transform-origin: 128px 307px;" id="elwrb2a1krgb" class="animable"></rect><rect x="135" y="304" width="34" height="6" style="fill: rgb(64, 123, 255); transform-origin: 152px 307px;" id="elyj3tak843l" class="animable"></rect><rect x="122" y="296" width="12" height="7" style="fill: rgb(64, 123, 255); transform-origin: 128px 299.5px;" id="elbyguvu2xhsm" class="animable"></rect><rect x="122" y="289" width="12" height="6" style="fill: rgb(64, 123, 255); transform-origin: 128px 292px;" id="el15lh4uk8xg4" class="animable"></rect><rect x="135" y="296" width="34" height="7" style="fill: rgb(64, 123, 255); transform-origin: 152px 299.5px;" id="el8ojxqsi90mp" class="animable"></rect><rect x="135" y="311" width="34" height="7" style="fill: rgb(64, 123, 255); transform-origin: 152px 314.5px;" id="elum6taaj7i4h" class="animable"></rect><rect x="135" y="289" width="34" height="6" style="fill: rgb(64, 123, 255); transform-origin: 152px 292px;" id="elvy1huqqkrj" class="animable"></rect><rect x="122" y="311" width="12" height="7" style="fill: rgb(64, 123, 255); transform-origin: 128px 314.5px;" id="eln159b0rdjzd" class="animable"></rect><rect x="122" y="281" width="12" height="7" style="fill: rgb(64, 123, 255); transform-origin: 128px 284.5px;" id="elsiqzjc1wcin" class="animable"></rect><rect x="135" y="281" width="34" height="7" style="fill: rgb(64, 123, 255); transform-origin: 152px 284.5px;" id="ele7sxk7392i" class="animable"></rect><g id="eluhg7spf6eg"><rect x="125.93" y="178.62" width="60.34" height="50.13" rx="2.37" style="opacity: 0.1; isolation: isolate; transform-origin: 156.1px 203.685px;" class="animable"></rect></g><rect x="137.1" y="176.25" width="60.34" height="50.13" rx="2.37" style="fill: rgb(64, 123, 255); transform-origin: 167.27px 201.315px;" id="elayk9xjqzwl7" class="animable"></rect><g id="el5pon03prnyw"><rect x="137.1" y="176.25" width="60.34" height="50.13" rx="2.37" style="fill: rgb(255, 255, 255); opacity: 0.3; isolation: isolate; transform-origin: 167.27px 201.315px;" class="animable"></rect></g><rect x="176" y="183" width="15" height="7" style="fill: rgb(64, 123, 255); transform-origin: 183.5px 186.5px;" id="ellb3fh35vsym" class="animable"></rect><rect x="160" y="183" width="15" height="7" style="fill: rgb(64, 123, 255); transform-origin: 167.5px 186.5px;" id="elk97kjlcqadp" class="animable"></rect><rect x="160" y="190" width="15" height="30" style="fill: rgb(64, 123, 255); transform-origin: 167.5px 205px;" id="eletjxspip2u4" class="animable"></rect><rect x="176" y="190" width="15" height="30" style="fill: rgb(64, 123, 255); transform-origin: 183.5px 205px;" id="elwd9lq7exd7o" class="animable"></rect><rect x="144" y="183" width="15" height="7" style="fill: rgb(64, 123, 255); transform-origin: 151.5px 186.5px;" id="el8k0tsaycrdg" class="animable"></rect><rect x="144" y="190" width="15" height="30" style="fill: rgb(64, 123, 255); transform-origin: 151.5px 205px;" id="elh6b5xdk7wum" class="animable"></rect><g id="eln171frb681d"><rect x="144.83" y="231.23" width="60.34" height="50.13" rx="2.37" style="opacity: 0.1; isolation: isolate; transform-origin: 175px 256.295px;" class="animable"></rect></g><rect x="165.1" y="228.02" width="60.34" height="50.13" rx="2.37" style="fill: rgb(64, 123, 255); transform-origin: 195.27px 253.085px;" id="el8s8u8uwpih" class="animable"></rect><g id="el1m5p4nonpjr"><rect x="165.1" y="228.02" width="60.34" height="50.13" rx="2.37" style="fill: rgb(255, 255, 255); opacity: 0.3; isolation: isolate; transform-origin: 195.27px 253.085px;" class="animable"></rect></g><rect x="196" y="235" width="23" height="17" style="fill: rgb(64, 123, 255); transform-origin: 207.5px 243.5px;" id="ells4txfkiqmp" class="animable"></rect><rect x="172" y="235" width="23" height="17" style="fill: rgb(64, 123, 255); transform-origin: 183.5px 243.5px;" id="elzss2xlc66ta" class="animable"></rect><rect x="172" y="253" width="23" height="19" style="fill: rgb(64, 123, 255); transform-origin: 183.5px 262.5px;" id="elu0yb75p7e4b" class="animable"></rect><rect x="196" y="253" width="23" height="19" style="fill: rgb(64, 123, 255); transform-origin: 207.5px 262.5px;" id="elev5hhzcywb" class="animable"></rect><g id="elezcj5c2dy5w"><path d="M225,230.39V264H204.27a4.15,4.15,0,0,1-4.27-4.46V228h23.07C224.38,228,225,229.08,225,230.39Z" style="opacity: 0.2; isolation: isolate; transform-origin: 212.494px 246.001px;" class="animable"></path></g><g id="ellkumv5xgq7f"><rect x="146.09" y="131.49" width="60.34" height="50.13" rx="2.37" style="opacity: 0.1; isolation: isolate; transform-origin: 176.26px 156.555px;" class="animable"></rect></g><rect x="156.1" y="122.48" width="60.34" height="50.13" rx="2.37" style="fill: rgb(64, 123, 255); transform-origin: 186.27px 147.545px;" id="elgvnb4hwsman" class="animable"></rect><g id="ely3gnmqy2pcs"><rect x="156.1" y="122.48" width="60.34" height="50.13" rx="2.37" style="fill: rgb(255, 255, 255); opacity: 0.3; isolation: isolate; transform-origin: 186.27px 147.545px;" class="animable"></rect></g><rect x="180" y="129" width="19" height="5" style="fill: rgb(64, 123, 255); transform-origin: 189.5px 131.5px;" id="el7g4b9m9nyht" class="animable"></rect><rect x="180" y="135" width="9" height="31" style="fill: rgb(64, 123, 255); transform-origin: 184.5px 150.5px;" id="elwsbpr34t11" class="animable"></rect><rect x="200" y="129" width="10" height="5" style="fill: rgb(64, 123, 255); transform-origin: 205px 131.5px;" id="elwxsdjl18psf" class="animable"></rect><rect x="200" y="135" width="10" height="31" style="fill: rgb(64, 123, 255); transform-origin: 205px 150.5px;" id="eljf2r60icgyh" class="animable"></rect><rect x="190" y="135" width="9" height="31" style="fill: rgb(64, 123, 255); transform-origin: 194.5px 150.5px;" id="el88gbeksouql" class="animable"></rect><rect x="163" y="135" width="16" height="31" style="fill: rgb(64, 123, 255); transform-origin: 171px 150.5px;" id="el3rjf1z4acfb" class="animable"></rect><rect x="163" y="129" width="16" height="5" style="fill: rgb(64, 123, 255); transform-origin: 171px 131.5px;" id="el7ilx68o1kbj" class="animable"></rect></g><g id="freepik--data-1--inject-109" class="animable" style="transform-origin: 304.795px 202.115px;"><rect x="307.3" y="239.69" width="77.5" height="77.5" rx="4.71" style="fill: rgb(64, 123, 255); transform-origin: 346.05px 278.44px;" id="elqbi6b6vm65" class="animable"></rect><g id="eljne9tqndhr"><rect x="317.42" y="249.82" width="57.58" height="57.25" style="fill: rgb(255, 255, 255); opacity: 0.25; transform-origin: 346.21px 278.445px;" class="animable"></rect></g><g id="elmglbh8ssd5d"><polygon points="317.42 307 332.08 294.95 336.87 298.81 352.05 285.99 359.51 293.33 375 280.33 375 307 317.42 307" style="fill: rgb(255, 255, 255); opacity: 0.25; transform-origin: 346.21px 293.665px;" class="animable"></polygon></g><g id="el6f5k4oizh27"><polygon points="317.42 307 329.83 283.72 344.33 285.98 355.17 271.82 366.33 273.83 375 265.17 375 307 317.42 307" style="fill: rgb(255, 255, 255); opacity: 0.25; transform-origin: 346.21px 286.085px;" class="animable"></polygon></g><g id="el0cdbf3d90b5e"><polygon points="317.42 307 346.05 303.46 355.33 298.82 365.33 299.82 375 295 375 307 317.42 307" style="fill: rgb(255, 255, 255); opacity: 0.25; transform-origin: 346.21px 301px;" class="animable"></polygon></g><g id="elu7jch8mame"><path d="M377,240v8a5.22,5.22,0,0,1-5,5H316v23.48a4.77,4.77,0,0,1-5,4.52h-4V244.4c0-2.6,2.4-4.4,5-4.4Z" style="opacity: 0.2; isolation: isolate; transform-origin: 342px 260.503px;" class="animable"></path></g><rect x="212.91" y="173.88" width="77.5" height="77.5" rx="4.71" style="fill: rgb(64, 123, 255); transform-origin: 251.66px 212.63px;" id="elw3606er5ngf" class="animable"></rect><g id="eltcwihcs1db9"><rect x="240.63" y="181.97" width="21.75" height="13.03" rx="0.87" style="fill: rgb(255, 255, 255); opacity: 0.8; transform-origin: 251.505px 188.485px;" class="animable"></rect></g><g id="ele0rpay8xhs5"><rect x="229.52" y="210" width="17.59" height="9.95" rx="0.87" style="fill: rgb(255, 255, 255); opacity: 0.6; transform-origin: 238.315px 214.975px;" class="animable"></rect></g><g id="ellby85wpdeln"><rect x="256.21" y="210" width="17.59" height="9.95" rx="0.87" style="fill: rgb(255, 255, 255); opacity: 0.6; transform-origin: 265.005px 214.975px;" class="animable"></rect></g><g id="elvoi1pwvllc"><rect x="248.16" y="231.05" width="9.23" height="8.5" rx="0.87" style="fill: rgb(255, 255, 255); opacity: 0.4; transform-origin: 252.775px 235.3px;" class="animable"></rect></g><g id="el25qpj695s35"><rect x="259.88" y="231.05" width="9.23" height="8.5" rx="0.87" style="fill: rgb(255, 255, 255); opacity: 0.4; transform-origin: 264.495px 235.3px;" class="animable"></rect></g><g id="el219auxhvkid"><rect x="271.61" y="231.05" width="9.23" height="8.5" rx="0.87" style="fill: rgb(255, 255, 255); opacity: 0.4; transform-origin: 276.225px 235.3px;" class="animable"></rect></g><g id="elbuhevbakzo"><rect x="221.03" y="231.05" width="9.23" height="8.5" rx="0.87" style="fill: rgb(255, 255, 255); opacity: 0.4; transform-origin: 225.645px 235.3px;" class="animable"></rect></g><g id="el9bberet0zzq"><rect x="233.75" y="231.05" width="9.23" height="8.5" rx="0.87" style="fill: rgb(255, 255, 255); opacity: 0.4; transform-origin: 238.365px 235.3px;" class="animable"></rect></g><g id="eleuuaoxy5h6n"><g style="opacity: 0.3; transform-origin: 251px 213px;" class="animable"><polygon points="264 210 265 210 265 203 252 203 252 195 251 195 251 203 238 203 238 210 239 210 239 204 264 204 264 210" style="fill: rgb(255, 255, 255); transform-origin: 251.5px 202.5px;" id="el0x9ngpi9knim" class="animable"></polygon><polygon points="238 226 225 226 225 231 226 231 226 227 238 227 238 231 239 231 239 220 238 220 238 226" style="fill: rgb(255, 255, 255); transform-origin: 232px 225.5px;" id="elsmvzeo38rh9" class="animable"></polygon><polygon points="265 227 265 220 264 220 264 227 252 227 252 231 253 231 253 228 264 228 264 231 265 231 265 228 276 228 276 231 277 231 277 227 265 227" style="fill: rgb(255, 255, 255); transform-origin: 264.5px 225.5px;" id="elcoji2381244" class="animable"></polygon></g></g><g id="els0i5mku4qu7"><path d="M290,178.59V201H235.07a5.25,5.25,0,0,1-5.07-5V174h55.71A4.27,4.27,0,0,1,290,178.59Z" style="opacity: 0.2; isolation: isolate; transform-origin: 260.006px 187.5px;" class="animable"></path></g><rect x="319.18" y="140.19" width="77.5" height="77.5" rx="4.71" style="fill: rgb(64, 123, 255); transform-origin: 357.93px 178.94px;" id="eli3ub1emjbin" class="animable"></rect><g id="elo07xua1ogt"><rect x="329.14" y="150.31" width="57.58" height="57.25" style="fill: rgb(255, 255, 255); opacity: 0.25; transform-origin: 357.93px 178.935px;" class="animable"></rect></g><g id="eljuwoj543o0r"><rect x="335.02" y="185.5" width="5.8" height="14.87" style="fill: rgb(255, 255, 255); opacity: 0.35; transform-origin: 337.92px 192.935px;" class="animable"></rect></g><g id="elzz3l1wgk16d"><rect x="335.02" y="185.5" width="5.8" height="22.06" style="fill: rgb(255, 255, 255); opacity: 0.35; transform-origin: 337.92px 196.53px;" class="animable"></rect></g><g id="el0leszng2hmr"><rect x="345.02" y="175.08" width="5.8" height="21.89" style="fill: rgb(255, 255, 255); opacity: 0.35; transform-origin: 347.92px 186.025px;" class="animable"></rect></g><g id="elw2rjksyqu7"><rect x="345.02" y="175.08" width="5.8" height="32.48" style="fill: rgb(255, 255, 255); opacity: 0.35; transform-origin: 347.92px 191.32px;" class="animable"></rect></g><g id="elv406shehjze"><rect x="355.03" y="181.49" width="5.8" height="17.57" style="fill: rgb(255, 255, 255); opacity: 0.35; transform-origin: 357.93px 190.275px;" class="animable"></rect></g><g id="elg8e730okzb9"><rect x="355.03" y="181.49" width="5.8" height="26.07" style="fill: rgb(255, 255, 255); opacity: 0.35; transform-origin: 357.93px 194.525px;" class="animable"></rect></g><g id="elrzinstg5crn"><rect x="365.04" y="172.49" width="5.8" height="23.64" style="fill: rgb(255, 255, 255); opacity: 0.35; transform-origin: 367.94px 184.31px;" class="animable"></rect></g><g id="el0ngr1d9uumup"><rect x="365.04" y="172.49" width="5.8" height="35.07" style="fill: rgb(255, 255, 255); opacity: 0.35; transform-origin: 367.94px 190.025px;" class="animable"></rect></g><g id="elqkbjkwba3yr"><rect x="375.04" y="158.74" width="5.8" height="32.9" style="fill: rgb(255, 255, 255); opacity: 0.35; transform-origin: 377.94px 175.19px;" class="animable"></rect></g><g id="elzcbf18r1qcj"><rect x="375.04" y="158.74" width="5.8" height="48.82" style="fill: rgb(255, 255, 255); opacity: 0.35; transform-origin: 377.94px 183.15px;" class="animable"></rect></g><g id="eld5d9r8vr5oi"><path d="M340,140v42.4a4.72,4.72,0,0,1-4.83,4.6H319V144.89a5,5,0,0,1,4.88-4.89Z" style="opacity: 0.2; isolation: isolate; transform-origin: 329.5px 163.501px;" class="animable"></path></g><rect x="255.27" y="87.04" width="77.5" height="77.5" rx="4.71" style="fill: rgb(64, 123, 255); transform-origin: 294.02px 125.79px;" id="elojpojzwzxqi" class="animable"></rect><g id="elja8foe07tv"><circle cx="294.02" cy="125.79" r="25.41" style="fill: rgb(255, 255, 255); opacity: 0.25; transform-origin: 294.02px 125.79px; transform: rotate(-80.78deg);" class="animable"></circle></g><g id="el9jllq84izjc"><path d="M294,125.79l25,4.74a25.41,25.41,0,1,1-25-30.16Z" style="fill: rgb(255, 255, 255); opacity: 0.25; transform-origin: 293.814px 125.78px;" class="animable"></path></g><g id="eljlexs75x1t"><path d="M294,125.79,294,151.2a25.42,25.42,0,0,1,.07-50.83Z" style="fill: rgb(255, 255, 255); opacity: 0.25; transform-origin: 281.594px 125.785px;" class="animable"></path></g><g id="el61k34supx9u"><path d="M294,125.79l-13.39-21.6a25,25,0,0,1,6.39-2.83,25.32,25.32,0,0,1,6.92-1Z" style="fill: rgb(255, 255, 255); opacity: 0.25; transform-origin: 287.305px 113.075px;" class="animable"></path></g></g><g id="freepik--Character--inject-109" class="animable" style="transform-origin: 373.374px 264.053px;"><g id="freepik--group--inject-109" class="animable" style="transform-origin: 373.374px 264.053px;"><path d="M428.25,176s13.5,23.66,14.5,29.33-11.5,41.92-11.5,41.92,2.75,9.54-.25,11.15-8.24,4.85-9,2.1,0-11.82,0-11.82l2.26-1.93s8-37.88,8-39.19-14.51-23.65-14.51-23.65Z" style="fill: rgb(228, 137, 123); transform-origin: 430.278px 218.784px;" id="eliawbr9vmp5d" class="animable"></path><polygon points="378.48 407.03 370.37 407.88 369.96 403.18 368.85 390.39 376.96 389.53 378.19 403.66 378.48 407.03" style="fill: rgb(228, 137, 123); transform-origin: 373.665px 398.705px;" id="eljee3a8ov8k" class="animable"></polygon><polygon points="418.96 406 411.1 406 411.03 404.22 411.02 404 410.62 392.6 410.61 392.37 410.45 388 418.32 388 418.96 406" style="fill: rgb(228, 137, 123); transform-origin: 414.705px 397px;" id="el4eg6tr7pv37" class="animable"></polygon><g id="eltctamo4v7z"><polygon points="376.96 389.53 378.19 403.66 369.96 403.18 368.85 390.39 376.96 389.53" style="opacity: 0.2; isolation: isolate; transform-origin: 373.52px 396.595px;" class="animable"></polygon></g><g id="el2n8ylmvrtrl"><polygon points="418.91 405 418.9 405 411.03 404 411.02 404 410.61 393 410.62 393 418.5 393.63 418.9 404.65 418.91 405" style="opacity: 0.2; isolation: isolate; transform-origin: 414.76px 399px;" class="animable"></polygon></g><path d="M437.28,187.33l-13.53,9.2-.26-.33-8.21-10.7-5-6.56,7.43-20.2C426.25,162,437.28,187.33,437.28,187.33Z" style="fill: rgb(38, 50, 56); transform-origin: 423.78px 177.635px;" id="elow0g7sv8v0t" class="animable"></path><g id="elplu3hmnfe6"><path d="M423.49,196.2l-8.21-10.7,6.59-10.11S425.9,185.83,423.49,196.2Z" style="opacity: 0.2; isolation: isolate; transform-origin: 419.769px 185.795px;" class="animable"></path></g><path d="M410,405.53h9.55a.68.68,0,0,1,.67.54l1.55,7a1.18,1.18,0,0,1-1.15,1.4c-3.09-.05-5.34-.24-9.22-.24-2.39,0-9.6.25-12.9.25s-3.73-3.26-2.38-3.56c6.06-1.32,10.62-3.15,12.56-4.89A1.89,1.89,0,0,1,410,405.53Z" style="fill: rgb(38, 50, 56); transform-origin: 408.597px 410.005px;" id="el4kgptysbefv" class="animable"></path><path d="M369.51,405.28h9.55a.68.68,0,0,1,.67.54l1.55,7a1.18,1.18,0,0,1-1.15,1.4c-3.09-.05-5.34-.24-9.22-.24-2.39,0-9.6.25-12.9.25s-3.73-3.26-2.38-3.56c6.06-1.32,10.62-3.15,12.56-4.89A1.89,1.89,0,0,1,369.51,405.28Z" style="fill: rgb(38, 50, 56); transform-origin: 368.107px 409.755px;" id="el0np8rc5vyv2s" class="animable"></path><path d="M368.11,402h11.53s-.94-99.25,11.53-132.77c.88,11.08,1.87,22.57,2.84,32.15.6,5.93,1.21,11,1.78,14.91,3.63,25,12.78,86.71,12.78,86.71H420s-1.36-59.14-2.7-83.7c-1.49-26.67-2.13-85.3-2.2-90.3H373.36C369.39,250,359.21,334,368.11,402Z" style="fill: rgb(64, 123, 255); transform-origin: 392.282px 316px;" id="el7hriqi0ifi" class="animable"></path><g id="elmtlqh63ac9"><path d="M368.11,402h11.53s-.94-99.25,11.53-132.77c.88,11.08,1.87,22.57,2.84,32.15.6,5.93,1.21,11,1.78,14.91,3.63,25,12.78,86.71,12.78,86.71H420s-1.36-59.14-2.7-83.7c-1.49-26.67-2.13-85.3-2.2-90.3H373.36C369.39,250,359.21,334,368.11,402Z" style="fill: rgb(255, 255, 255); opacity: 0.6; isolation: isolate; transform-origin: 392.282px 316px;" class="animable"></path></g><path d="M388.5,140.87c.1.38.21.76.34,1.11a11,11,0,0,0,5.32,6.07,9.85,9.85,0,0,0,11.76-1.88c3.94-4,3.84-8.57,4.28-16.34a10.66,10.66,0,0,0-14.71-10.64C387.86,122.3,386.82,133.87,388.5,140.87Z" style="fill: rgb(228, 137, 123); transform-origin: 399.019px 133.795px;" id="elx80kcgy35o" class="animable"></path><g id="elih783psw1z"><path d="M392.73,147.17a11,11,0,0,0,1.43.88,9.91,9.91,0,0,0,8.51.37,11.37,11.37,0,0,0-1.39-2.64A15.37,15.37,0,0,0,392.73,147.17Z" style="opacity: 0.2; isolation: isolate; transform-origin: 397.7px 147.433px;" class="animable"></path></g><path d="M408.38,157.25c-3.83,3.48-13.21,2.19-13.21,2.19s-5.86-1.6-4.63-3.43c3.45-.57,5.12-2.18,5.81-4.24a10,10,0,0,0,.35-3.94,20.71,20.71,0,0,0-.29-2.2L408,137C406.49,142.71,404.63,153.14,408.38,157.25Z" style="fill: rgb(228, 137, 123); transform-origin: 399.375px 148.337px;" id="eli7ca47kmohl" class="animable"></path><path d="M392.23,124.39c.08.22-.12.67-.27,1.18a11.42,11.42,0,0,0-.42,3.07,12.67,12.67,0,0,0,4,9,50,50,0,0,0,3.5,9.11,1.94,1.94,0,0,0,.58.77,1.86,1.86,0,0,0,1.12.19l6.78-.23a1.37,1.37,0,0,0,1.09-.38,3.26,3.26,0,0,0,.25-.61c.61-1.46,3.19-.77,4.08-2.08a7.24,7.24,0,0,0,.53-1.86c.56-1.62,2.85-2.46,2.77-4.18-.05-1-1-1.9-.68-2.86s1.5-1.26,2-2.12,0-2-.55-2.8a3.67,3.67,0,0,1-.86-2.77,6.12,6.12,0,0,1,.52-1.06,3.69,3.69,0,0,0-.67-4.13,6.3,6.3,0,0,1-1.24-1.29c-.46-.87-.07-2-.63-2.87s-1.71-.84-2.69-.78-2.14,0-2.72-.74c-.42-.57-.4-1.38-.86-1.91-.66-.74-1.86-.54-2.79-.17s-1.95.84-2.85.43c-.63-.29-1-.93-1.57-1.31a2.27,2.27,0,0,0-2.67.15c-.5.43-.8,1.08-1.37,1.42a3.68,3.68,0,0,1-2.71,0,2.56,2.56,0,0,0-2.61.43c-.84,1,.07,2.78-.79,3.79-.49.58-1.39.66-1.92,1.2a1.54,1.54,0,0,0,.74,2.46c.3.06.69.08.8.36a2.5,2.5,0,0,1,.06.38c.11.39.66.41,1,.28C391.88,124.19,392.16,124.21,392.23,124.39Z" style="fill: rgb(38, 50, 56); transform-origin: 402.995px 130.678px;" id="elpw1oqt64amr" class="animable"></path><path d="M397.15,134.35a5,5,0,0,1-2.59,3.45c-1.58.67-2.62-1.56-2.39-3.89.22-2.08,1.29-5,3-4.61S397.7,132.26,397.15,134.35Z" style="fill: rgb(228, 137, 123); transform-origin: 394.729px 133.593px;" id="elimvg6ln2vle" class="animable"></path><g id="el8ut80ne92vq"><path d="M391.17,269.18c.88,11.08,1.87,22.6,2.84,32.18,1.42-13.83,3.16-23.69,3.16-23.69s1.63-1.34,6.11-8.49,0-20.5,0-20.5C403.42,261.08,391.17,269.18,391.17,269.18Z" style="opacity: 0.2; isolation: isolate; transform-origin: 398.221px 275.02px;" class="animable"></path></g><path d="M417,237.33,369.33,235a425.79,425.79,0,0,1,6.34-51.75,196.14,196.14,0,0,1,5-20.36,100.16,100.16,0,0,1,3.63-10S413.93,155.33,420,160,416.67,213,417,237.33Z" style="fill: rgb(38, 50, 56); transform-origin: 395.688px 195.11px;" id="eljktg39ujf6" class="animable"></path><path d="M392.14,153.68s4.53-3.56,13-3.37,9.33,3.37,9.33,3.37,9.33,4.65,2,12.32-21.77-11.76-21.77-11.76Z" style="fill: rgb(38, 50, 56); transform-origin: 405.71px 159.047px;" id="elz1st2hvan" class="animable"></path><g id="el6m4exyjwyfe"><path d="M392.14,153.68s4.53-3.56,13-3.37,9.33,3.37,9.33,3.37,9.33,4.65,2,12.32-21.77-11.76-21.77-11.76Z" style="fill: rgb(255, 255, 255); opacity: 0.25; transform-origin: 405.71px 159.047px;" class="animable"></path></g><g id="elcsarqq6znt6"><path d="M385.05,163.5S383,177,375.67,183.25a196.14,196.14,0,0,1,5-20.36Z" style="opacity: 0.2; isolation: isolate; transform-origin: 380.36px 173.07px;" class="animable"></path></g><path d="M378.94,153.06s-29.61-6.05-33.77-7.64S319,122.79,319,122.79l-4.82,3.64s16.49,21.4,24.74,27.57S376,169.49,376,169.49Z" style="fill: rgb(228, 137, 123); transform-origin: 346.56px 146.14px;" id="eld56c342wtl" class="animable"></path><path d="M385.12,153.06l-25.79-4.71-.66,17.82L377.94,174S390.09,161.81,385.12,153.06Z" style="fill: rgb(38, 50, 56); isolation: isolate; transform-origin: 372.492px 161.175px;" id="elthgdq5aahl" class="animable"></path><path d="M319,122.79c-2.37-2.71-11-8.56-12.27-9.06s-3.11,7.15-2.74,8.15,4.61,3.12,6.75,3.37,4.42,2.44,4.42,2.44Z" style="fill: rgb(228, 137, 123); transform-origin: 311.471px 120.698px;" id="elfvwdk3uqhyj" class="animable"></path><polygon points="357.93 147.7 360.76 148.35 359.47 166.49 356.76 165.5 357.93 147.7" style="fill: rgb(38, 50, 56); transform-origin: 358.76px 157.095px;" id="elcokvsj2xx5q" class="animable"></polygon><g id="ely0rtgfcyi7"><polygon points="357.93 147.7 360.76 148.35 359.47 166.49 356.76 165.5 357.93 147.7" style="fill: rgb(255, 255, 255); opacity: 0.25; transform-origin: 358.76px 157.095px;" class="animable"></polygon></g><polygon points="422 196.38 437.28 186.03 438.33 188.67 423.77 197.83 422 196.38" style="fill: rgb(38, 50, 56); transform-origin: 430.165px 191.93px;" id="el1jodb6c0gyp" class="animable"></polygon><g id="elz3q8fhmjwul"><polygon points="422 196.38 437.28 186.03 438.33 188.67 423.77 197.83 422 196.38" style="fill: rgb(255, 255, 255); opacity: 0.25; transform-origin: 430.165px 191.93px;" class="animable"></polygon></g><polygon points="366.81 398.75 367.38 402 381 402 381 399 366.81 398.75" style="fill: rgb(64, 123, 255); transform-origin: 373.905px 400.375px;" id="elbyz6aurilf" class="animable"></polygon><polygon points="407.27 400 408.57 403 420 403 420.75 400 407.27 400" style="fill: rgb(64, 123, 255); transform-origin: 414.01px 401.5px;" id="eldnero2vzn1h" class="animable"></polygon></g></g><defs>     <filter id="active" height="200%">         <feMorphology in="SourceAlpha" result="DILATED" operator="dilate" radius="2"></feMorphology>                <feFlood flood-color="#32DFEC" flood-opacity="1" result="PINK"></feFlood>        <feComposite in="PINK" in2="DILATED" operator="in" result="OUTLINE"></feComposite>        <feMerge>            <feMergeNode in="OUTLINE"></feMergeNode>            <feMergeNode in="SourceGraphic"></feMergeNode>        </feMerge>    </filter>    <filter id="hover" height="200%">        <feMorphology in="SourceAlpha" result="DILATED" operator="dilate" radius="2"></feMorphology>                <feFlood flood-color="#ff0000" flood-opacity="0.5" result="PINK"></feFlood>        <feComposite in="PINK" in2="DILATED" operator="in" result="OUTLINE"></feComposite>        <feMerge>            <feMergeNode in="OUTLINE"></feMergeNode>            <feMergeNode in="SourceGraphic"></feMergeNode>        </feMerge>            <feColorMatrix type="matrix" values="0   0   0   0   0                0   1   0   0   0                0   0   0   0   0                0   0   0   1   0 "></feColorMatrix>    </filter></defs></svg>